<svg width="140" height="30" viewBox="0 0 140 30" fill="none" xmlns="http://www.w3.org/2000/svg">
<path d="M43.8449 15.8441V15.4951C43.8449 14.6181 43.5447 13.9469 42.9444 13.4815C42.3623 12.9983 41.5983 12.7567 40.6524 12.7567C39.9247 12.7567 39.3517 12.8819 38.9333 13.1325C38.5331 13.3652 38.1511 13.7232 37.7873 14.2064C37.6782 14.3496 37.5599 14.448 37.4326 14.5017C37.3053 14.5554 37.1324 14.5823 36.9142 14.5823H36.0956C35.8955 14.5823 35.7136 14.5107 35.5498 14.3675C35.4043 14.2243 35.3406 14.0543 35.3588 13.8574C35.4134 13.3205 35.6772 12.7925 36.1501 12.2734C36.6413 11.7365 37.2871 11.2979 38.0875 10.9579C38.8879 10.6178 39.7428 10.4478 40.6524 10.4478C42.3441 10.4478 43.7084 10.9131 44.7453 11.8438C45.8004 12.7746 46.3279 14.0811 46.3279 15.7636V23.952C46.3279 24.1489 46.2552 24.3189 46.1096 24.4621C45.9641 24.6053 45.7913 24.6769 45.5912 24.6769H44.5816C44.3815 24.6769 44.2087 24.6053 44.0632 24.4621C43.9176 24.3189 43.8449 24.1489 43.8449 23.952V22.8513C43.5538 23.4956 42.9353 24.0057 41.9894 24.3816C41.0435 24.7575 40.0976 24.9454 39.1516 24.9454C38.2239 24.9454 37.3962 24.7843 36.6686 24.4621C35.9409 24.1221 35.377 23.6657 34.9768 23.0929C34.5948 22.5202 34.4038 21.8758 34.4038 21.1599C34.4038 19.8175 34.9132 18.7705 35.9318 18.0188C36.9505 17.2491 38.3058 16.7301 39.9975 16.4616L43.8449 15.8441ZM43.8449 17.9919L40.6251 18.502C39.4427 18.681 38.524 18.9763 37.8692 19.388C37.2143 19.7817 36.8869 20.2829 36.8869 20.8914C36.8869 21.3389 37.0961 21.7416 37.5145 22.0996C37.9328 22.4575 38.5695 22.6365 39.4245 22.6365C40.7342 22.6365 41.7984 22.2696 42.617 21.5358C43.4356 20.8019 43.8449 19.8444 43.8449 18.6631V17.9919Z" fill="#0C0C0E"/>
<path d="M52.792 23.952C52.792 24.1489 52.7193 24.3189 52.5737 24.4621C52.4282 24.6053 52.2554 24.6769 52.0553 24.6769H51.0457C50.8456 24.6769 50.6728 24.6053 50.5273 24.4621C50.3817 24.3189 50.309 24.1489 50.309 23.952V6.34012C50.309 6.14323 50.3817 5.9732 50.5273 5.83001C50.6728 5.68683 50.8456 5.61523 51.0457 5.61523H52.0553C52.2554 5.61523 52.4282 5.68683 52.5737 5.83001C52.7193 5.9732 52.792 6.14323 52.792 6.34012V23.952Z" fill="#0C0C0E"/>
<path d="M62.6209 22.6365C64.44 22.6365 65.6678 21.9385 66.3045 20.5424C66.4319 20.2739 66.5592 20.086 66.6865 19.9786C66.8139 19.8712 66.9867 19.8175 67.205 19.8175H68.0236C68.2237 19.8175 68.3965 19.8891 68.542 20.0323C68.6875 20.1576 68.7603 20.3097 68.7603 20.4887C68.7603 21.0973 68.5147 21.7505 68.0236 22.4486C67.5324 23.1466 66.823 23.7373 65.8952 24.2205C64.9675 24.7038 63.876 24.9454 62.6209 24.9454C61.3293 24.9454 60.2106 24.6769 59.2646 24.14C58.3187 23.603 57.5911 22.8692 57.0817 21.9385C56.5724 20.9899 56.2904 19.9339 56.2359 18.7705C56.2177 18.5557 56.2086 18.144 56.2086 17.5355C56.2086 17.1059 56.2177 16.8017 56.2359 16.6227C56.3996 14.7971 57.0272 13.3115 58.1186 12.166C59.2101 11.0205 60.7108 10.4478 62.6209 10.4478C63.876 10.4478 64.9584 10.6894 65.8679 11.1727C66.7957 11.638 67.496 12.2197 67.969 12.9177C68.4601 13.5979 68.7239 14.2422 68.7603 14.8508C68.7785 15.0476 68.7057 15.2177 68.542 15.3609C68.3965 15.504 68.2237 15.5756 68.0236 15.5756H67.205C66.9867 15.5756 66.8139 15.5219 66.6865 15.4146C66.5592 15.3072 66.4319 15.1192 66.3045 14.8508C65.6678 13.4547 64.44 12.7567 62.6209 12.7567C61.6204 12.7567 60.7472 13.0878 60.0014 13.75C59.2556 14.4122 58.8281 15.4145 58.7189 16.7569C58.7007 16.9538 58.6916 17.276 58.6916 17.7234C58.6916 18.1351 58.7007 18.4394 58.7189 18.6362C58.8463 19.9786 59.2737 20.9809 60.0014 21.6432C60.7472 22.3054 61.6204 22.6365 62.6209 22.6365Z" fill="#0C0C0E"/>
<path d="M84.6324 23.952C84.6324 24.1489 84.5596 24.3189 84.4141 24.4621C84.2686 24.6053 84.0958 24.6769 83.8957 24.6769H82.8861C82.686 24.6769 82.5132 24.6053 82.3676 24.4621C82.2221 24.3189 82.1494 24.1489 82.1494 23.952V16.8643C82.1494 15.5219 81.8128 14.5017 81.1397 13.8037C80.4667 13.1057 79.5299 12.7567 78.3293 12.7567C77.1469 12.7567 76.21 13.1057 75.5188 13.8037C74.8457 14.5017 74.5092 15.5219 74.5092 16.8643V23.952C74.5092 24.1489 74.4364 24.3189 74.2909 24.4621C74.1454 24.6053 73.9725 24.6769 73.7724 24.6769H72.7629C72.5628 24.6769 72.3899 24.6053 72.2444 24.4621C72.0989 24.3189 72.0261 24.1489 72.0261 23.952V6.34012C72.0261 6.14323 72.0989 5.9732 72.2444 5.83001C72.3899 5.68683 72.5628 5.61523 72.7629 5.61523H73.7724C73.9725 5.61523 74.1454 5.68683 74.2909 5.83001C74.4364 5.9732 74.5092 6.14323 74.5092 6.34012V12.2734C74.9094 11.7543 75.4551 11.3248 76.1464 10.9847C76.8558 10.6268 77.7199 10.4478 78.7386 10.4478C79.8846 10.4478 80.9033 10.6894 81.7946 11.1727C82.686 11.6559 83.3772 12.3539 83.8684 13.2668C84.3777 14.1617 84.6324 15.2266 84.6324 16.4616V23.952Z" fill="#0C0C0E"/>
<path d="M94.1941 10.4478C96.1406 10.4478 97.6777 11.0563 98.8055 12.2734C99.9334 13.4905 100.497 15.1461 100.497 17.2402V17.9651C100.497 18.1619 100.425 18.332 100.279 18.4752C100.133 18.6183 99.9606 18.6899 99.7605 18.6899H90.374V18.851C90.4104 20.0323 90.7742 20.963 91.4655 21.6432C92.1749 22.3054 93.0845 22.6365 94.1941 22.6365C95.1037 22.6365 95.804 22.5202 96.2952 22.2875C96.8045 22.0548 97.2593 21.7237 97.6595 21.2941C97.805 21.151 97.9324 21.0525 98.0415 20.9988C98.1688 20.9451 98.3326 20.9183 98.5327 20.9183H99.3513C99.5695 20.9183 99.7514 20.9899 99.897 21.1331C100.043 21.2762 100.106 21.4463 100.088 21.6432C100.015 22.1264 99.7424 22.6276 99.2694 23.1466C98.8146 23.6478 98.1506 24.0773 97.2775 24.4353C96.4225 24.7754 95.3947 24.9454 94.1941 24.9454C93.0299 24.9454 91.993 24.6859 91.0835 24.1668C90.1739 23.6299 89.4463 22.896 88.9006 21.9653C88.373 21.0346 88.0547 19.9876 87.9456 18.8242C87.9092 18.2872 87.891 17.8756 87.891 17.5892C87.891 17.3028 87.9092 16.8912 87.9456 16.3542C88.0547 15.2445 88.373 14.2422 88.9006 13.3473C89.4463 12.4524 90.1649 11.7454 91.0562 11.2263C91.9657 10.7073 93.0117 10.4478 94.1941 10.4478ZM98.0415 16.4348V16.3542C98.0415 15.2624 97.6868 14.3943 96.9773 13.75C96.2861 13.0878 95.3583 12.7567 94.1941 12.7567C93.1391 12.7567 92.2386 13.0878 91.4928 13.75C90.7651 14.4122 90.3922 15.2803 90.374 16.3542V16.4348H98.0415Z" fill="#0C0C0E"/>
<path d="M106.272 12.2734C106.709 11.7186 107.2 11.28 107.746 10.9579C108.291 10.6178 109.019 10.4478 109.929 10.4478C112.057 10.4478 113.549 11.2263 114.403 12.7835C114.931 12.0318 115.531 11.459 116.204 11.0653C116.877 10.6536 117.76 10.4478 118.851 10.4478C120.634 10.4478 121.953 10.9758 122.808 12.0318C123.681 13.0878 124.117 14.5823 124.117 16.5153V23.952C124.117 24.1489 124.045 24.3189 123.899 24.4621C123.754 24.6053 123.581 24.6769 123.381 24.6769H122.371C122.171 24.6769 121.998 24.6053 121.853 24.4621C121.707 24.3189 121.634 24.1489 121.634 23.952V16.7838C121.634 14.099 120.561 12.7567 118.415 12.7567C117.432 12.7567 116.65 13.0788 116.068 13.7232C115.486 14.3675 115.195 15.3251 115.195 16.5958V23.952C115.195 24.1489 115.122 24.3189 114.977 24.4621C114.831 24.6053 114.658 24.6769 114.458 24.6769H113.448C113.248 24.6769 113.076 24.6053 112.93 24.4621C112.785 24.3189 112.712 24.1489 112.712 23.952V16.7838C112.712 14.099 111.638 12.7567 109.492 12.7567C108.51 12.7567 107.727 13.0788 107.145 13.7232C106.563 14.3675 106.272 15.3251 106.272 16.5958V23.952C106.272 24.1489 106.199 24.3189 106.054 24.4621C105.908 24.6053 105.736 24.6769 105.535 24.6769H104.526C104.326 24.6769 104.153 24.6053 104.007 24.4621C103.862 24.3189 103.789 24.1489 103.789 23.952V11.4411C103.789 11.2442 103.862 11.0742 104.007 10.931C104.153 10.7878 104.326 10.7162 104.526 10.7162H105.535C105.736 10.7162 105.908 10.7878 106.054 10.931C106.199 11.0742 106.272 11.2442 106.272 11.4411V12.2734Z" fill="#0C0C0E"/>
<path d="M131.76 29.1336C131.596 29.5631 131.332 29.7779 130.968 29.7779H129.849C129.668 29.7779 129.513 29.7153 129.386 29.59C129.258 29.4647 129.195 29.3126 129.195 29.1336C129.195 29.062 129.204 28.9994 129.222 28.9457L131.841 23.3345L126.439 11.5485C126.42 11.4948 126.411 11.4322 126.411 11.3606C126.411 11.1816 126.475 11.0295 126.602 10.9042C126.73 10.7789 126.884 10.7162 127.066 10.7162H128.185C128.549 10.7162 128.813 10.931 128.976 11.3606L133.178 20.4887L137.435 11.3606C137.599 10.931 137.863 10.7162 138.226 10.7162H139.345C139.527 10.7162 139.682 10.7789 139.809 10.9042C139.936 11.0295 140 11.1816 140 11.3606C140 11.4322 139.991 11.4948 139.973 11.5485L131.76 29.1336Z" fill="#0C0C0E"/>
<path d="M24.0873 15.7953L14.9251 0.254362C14.8807 0.177623 14.8164 0.1137 14.7388 0.0690426C14.6611 0.0243855 14.5728 0.000573699 14.4828 1.02377e-05C14.3928 -0.000553223 14.3042 0.0221513 14.2259 0.0658331C14.1477 0.109515 14.0827 0.172629 14.0373 0.248807L11.2933 4.90555C11.2035 5.05798 11.1562 5.2309 11.1562 5.40691C11.1562 5.58293 11.2035 5.75585 11.2933 5.90828L17.2677 16.0467C17.3576 16.1993 17.4871 16.326 17.6429 16.414C17.7988 16.502 17.9755 16.5483 18.1554 16.5481H23.6434C23.7333 16.5478 23.8215 16.5245 23.8992 16.4804C23.9769 16.4363 24.0415 16.373 24.0864 16.2968C24.1314 16.2206 24.1551 16.1342 24.1552 16.0462C24.1554 15.9582 24.1319 15.8717 24.0873 15.7953Z" fill="#363FF9"/>
<path d="M0.0706503 23.9176L9.23288 8.37666C9.27784 8.30053 9.34247 8.23732 9.42025 8.19338C9.49803 8.14943 9.58623 8.1263 9.67603 8.1263C9.76583 8.1263 9.85406 8.14943 9.93185 8.19338C10.0096 8.23732 10.0742 8.30053 10.1192 8.37666L12.8646 13.0292C12.9545 13.1819 13.0017 13.3551 13.0017 13.5313C13.0017 13.7075 12.9545 13.8807 12.8646 14.0334L6.89021 24.1718C6.8006 24.3244 6.67147 24.4511 6.51585 24.5391C6.36022 24.6271 6.18362 24.6734 6.0039 24.6732H0.514511C0.424082 24.6736 0.335151 24.6506 0.256756 24.6065C0.178361 24.5623 0.113308 24.4986 0.0682095 24.4218C0.0231111 24.3451 -0.000424567 24.258 5.79789e-06 24.1694C0.000436163 24.0809 0.0248079 23.994 0.0706503 23.9176Z" fill="#363FF9"/>
<path d="M10.1179 24.6698H28.4423C28.5322 24.6698 28.6205 24.6465 28.6983 24.6024C28.7761 24.5583 28.8407 24.4949 28.8855 24.4186C28.9304 24.3423 28.9539 24.2558 28.9538 24.1678C28.9537 24.0797 28.9299 23.9933 28.8848 23.9171L26.1436 19.2617C26.0537 19.1092 25.9243 18.9825 25.7684 18.8945C25.6126 18.8065 25.4358 18.7602 25.2559 18.7604H13.3071C13.1272 18.7602 12.9505 18.8065 12.7946 18.8945C12.6388 18.9825 12.5094 19.1092 12.4194 19.2617L9.67545 23.9171C9.63038 23.9933 9.60658 24.0797 9.60645 24.1678C9.60632 24.2558 9.62984 24.3423 9.67469 24.4186C9.71953 24.4949 9.78412 24.5583 9.86192 24.6024C9.93971 24.6465 10.028 24.6698 10.1179 24.6698Z" fill="#363FF9"/>
</svg>
