<svg width="113" height="24" viewBox="0 0 113 24" fill="none" xmlns="http://www.w3.org/2000/svg">
<path d="M35.3053 12.7698V12.4885C35.3053 11.7817 35.0637 11.2407 34.5803 10.8656C34.1116 10.4761 33.4963 10.2814 32.7347 10.2814C32.1487 10.2814 31.6873 10.3824 31.3504 10.5843C31.0282 10.7719 30.7206 11.0604 30.4276 11.4499C30.3397 11.5653 30.2445 11.6446 30.142 11.6879C30.0395 11.7312 29.9003 11.7528 29.7245 11.7528H29.0654C28.9042 11.7528 28.7578 11.6951 28.6259 11.5797C28.5088 11.4643 28.4575 11.3273 28.4721 11.1686C28.5161 10.7358 28.7285 10.3103 29.1093 9.89192C29.5048 9.45915 30.0248 9.10573 30.6693 8.83164C31.3138 8.55756 32.0023 8.42052 32.7347 8.42052C34.0969 8.42052 35.1955 8.79558 36.0304 9.54571C36.88 10.2958 37.3048 11.3489 37.3048 12.7049V19.3045C37.3048 19.4632 37.2462 19.6003 37.129 19.7157C37.0118 19.8311 36.8727 19.8888 36.7115 19.8888H35.8986C35.7375 19.8888 35.5983 19.8311 35.4811 19.7157C35.3639 19.6003 35.3053 19.4632 35.3053 19.3045V18.4174C35.071 18.9367 34.573 19.3478 33.8113 19.6508C33.0496 19.9537 32.2879 20.1052 31.5262 20.1052C30.7792 20.1052 30.1127 19.9753 29.5268 19.7157C28.9409 19.4416 28.4868 19.0737 28.1645 18.6121C27.8569 18.1505 27.7031 17.6312 27.7031 17.0542C27.7031 15.9723 28.1133 15.1284 28.9335 14.5225C29.7538 13.9022 30.8451 13.4839 32.2073 13.2675L35.3053 12.7698ZM35.3053 14.5009L32.7127 14.912C31.7606 15.0562 31.0209 15.2943 30.4935 15.626C29.9662 15.9434 29.7026 16.3473 29.7026 16.8378C29.7026 17.1984 29.871 17.523 30.2079 17.8115C30.5448 18.1 31.0575 18.2443 31.7459 18.2443C32.8006 18.2443 33.6575 17.9486 34.3166 17.3571C34.9758 16.7657 35.3053 15.9939 35.3053 15.0418V14.5009Z" fill="#525252"/>
<path d="M42.5099 19.3045C42.5099 19.4632 42.4513 19.6003 42.3341 19.7157C42.2169 19.8311 42.0777 19.8888 41.9166 19.8888H41.1037C40.9425 19.8888 40.8034 19.8311 40.6862 19.7157C40.569 19.6003 40.5104 19.4632 40.5104 19.3045V5.10987C40.5104 4.95119 40.569 4.81414 40.6862 4.69874C40.8034 4.58334 40.9425 4.52563 41.1037 4.52563H41.9166C42.0777 4.52563 42.2169 4.58334 42.3341 4.69874C42.4513 4.81414 42.5099 4.95119 42.5099 5.10987V19.3045Z" fill="#525252"/>
<path d="M50.4243 18.2443C51.8891 18.2443 52.8778 17.6817 53.3905 16.5565C53.493 16.3401 53.5956 16.1886 53.6981 16.1021C53.8006 16.0155 53.9398 15.9723 54.1156 15.9723H54.7747C54.9359 15.9723 55.075 16.03 55.1922 16.1454C55.3094 16.2463 55.368 16.369 55.368 16.5132C55.368 17.0037 55.1702 17.5302 54.7747 18.0928C54.3792 18.6554 53.808 19.1314 53.0609 19.5209C52.3139 19.9104 51.435 20.1052 50.4243 20.1052C49.3843 20.1052 48.4835 19.8888 47.7218 19.456C46.9601 19.0233 46.3742 18.4318 45.9641 17.6817C45.5539 16.9171 45.3269 16.066 45.2829 15.1284C45.2683 14.9553 45.261 14.6235 45.261 14.133C45.261 13.7868 45.2683 13.5416 45.2829 13.3973C45.4148 11.9259 45.9201 10.7286 46.799 9.80536C47.6778 8.88213 48.8863 8.42052 50.4243 8.42052C51.435 8.42052 52.3066 8.61526 53.039 9.00475C53.786 9.37981 54.3499 9.84864 54.7308 10.4112C55.1263 10.9594 55.3387 11.4787 55.368 11.9692C55.3826 12.1279 55.324 12.2649 55.1922 12.3803C55.075 12.4957 54.9359 12.5534 54.7747 12.5534H54.1156C53.9398 12.5534 53.8006 12.5101 53.6981 12.4236C53.5956 12.337 53.493 12.1856 53.3905 11.9692C52.8778 10.844 51.8891 10.2814 50.4243 10.2814C49.6187 10.2814 48.9156 10.5483 48.315 11.082C47.7145 11.6158 47.3702 12.4236 47.2824 13.5055C47.2677 13.6642 47.2604 13.9238 47.2604 14.2845C47.2604 14.6163 47.2677 14.8615 47.2824 15.0202C47.3849 16.1021 47.7291 16.9099 48.315 17.4437C48.9156 17.9774 49.6187 18.2443 50.4243 18.2443Z" fill="#525252"/>
<path d="M68.1487 19.3045C68.1487 19.4632 68.0901 19.6003 67.9729 19.7157C67.8557 19.8311 67.7165 19.8888 67.5554 19.8888H66.7425C66.5813 19.8888 66.4422 19.8311 66.325 19.7157C66.2078 19.6003 66.1492 19.4632 66.1492 19.3045V13.5921C66.1492 12.5101 65.8782 11.6879 65.3363 11.1253C64.7943 10.5627 64.0399 10.2814 63.0732 10.2814C62.1211 10.2814 61.3667 10.5627 60.8101 11.1253C60.2681 11.6879 59.9971 12.5101 59.9971 13.5921V19.3045C59.9971 19.4632 59.9385 19.6003 59.8214 19.7157C59.7042 19.8311 59.565 19.8888 59.4039 19.8888H58.5909C58.4298 19.8888 58.2907 19.8311 58.1735 19.7157C58.0563 19.6003 57.9977 19.4632 57.9977 19.3045V5.10987C57.9977 4.95119 58.0563 4.81414 58.1735 4.69874C58.2907 4.58334 58.4298 4.52563 58.5909 4.52563H59.4039C59.565 4.52563 59.7042 4.58334 59.8214 4.69874C59.9385 4.81414 59.9971 4.95119 59.9971 5.10987V9.89192C60.3194 9.47358 60.7588 9.12736 61.3154 8.85328C61.8867 8.56477 62.5825 8.42052 63.4028 8.42052C64.3256 8.42052 65.1458 8.61526 65.8636 9.00475C66.5813 9.39424 67.138 9.95683 67.5334 10.6925C67.9436 11.4138 68.1487 12.2721 68.1487 13.2675V19.3045Z" fill="#525252"/>
<path d="M75.848 8.42052C77.4153 8.42052 78.6531 8.91098 79.5613 9.89192C80.4694 10.8729 80.9235 12.2072 80.9235 13.895V14.4792C80.9235 14.6379 80.8649 14.7749 80.7477 14.8903C80.6306 15.0058 80.4914 15.0635 80.3303 15.0635H72.772V15.1933C72.8013 16.1454 73.0942 16.8955 73.6509 17.4437C74.2221 17.9774 74.9545 18.2443 75.848 18.2443C76.5804 18.2443 77.1444 18.1505 77.5399 17.963C77.95 17.7754 78.3162 17.5086 78.6384 17.1624C78.7556 17.047 78.8582 16.9676 78.9461 16.9243C79.0486 16.8811 79.1804 16.8594 79.3415 16.8594H80.0007C80.1765 16.8594 80.3229 16.9171 80.4401 17.0325C80.5573 17.1479 80.6086 17.285 80.5939 17.4437C80.5353 17.8331 80.3156 18.2371 79.9348 18.6554C79.5686 19.0593 79.0339 19.4055 78.3308 19.694C77.6424 19.9681 76.8148 20.1052 75.848 20.1052C74.9106 20.1052 74.0756 19.896 73.3433 19.4777C72.6109 19.0449 72.0249 18.4534 71.5855 17.7033C71.1607 16.9532 70.9044 16.1093 70.8165 15.1716C70.7872 14.7389 70.7726 14.4071 70.7726 14.1763C70.7726 13.9455 70.7872 13.6137 70.8165 13.1809C70.9044 12.2865 71.1607 11.4787 71.5855 10.7574C72.0249 10.0362 72.6035 9.46637 73.3213 9.04803C74.0537 8.62969 74.8959 8.42052 75.848 8.42052ZM78.9461 13.2458V13.1809C78.9461 12.301 78.6604 11.6013 78.0892 11.082C77.5325 10.5483 76.7855 10.2814 75.848 10.2814C74.9985 10.2814 74.2734 10.5483 73.6728 11.082C73.0869 11.6158 72.7866 12.3154 72.772 13.1809V13.2458H78.9461Z" fill="#525252"/>
<path d="M85.5736 9.89192C85.9252 9.44473 86.3207 9.0913 86.7601 8.83164C87.1995 8.55756 87.7854 8.42052 88.5178 8.42052C90.2316 8.42052 91.4328 9.04802 92.1212 10.303C92.546 9.69717 93.0294 9.23556 93.5713 8.9182C94.1133 8.58641 94.8237 8.42052 95.7026 8.42052C97.1381 8.42052 98.2001 8.84607 98.8885 9.69717C99.5916 10.5483 99.9431 11.7528 99.9431 13.3108V19.3045C99.9431 19.4632 99.8846 19.6003 99.7674 19.7157C99.6502 19.8311 99.511 19.8888 99.3499 19.8888H98.537C98.3758 19.8888 98.2367 19.8311 98.1195 19.7157C98.0023 19.6003 97.9437 19.4632 97.9437 19.3045V13.5271C97.9437 11.3633 97.0795 10.2814 95.351 10.2814C94.5601 10.2814 93.9302 10.5411 93.4615 11.0604C92.9927 11.5797 92.7584 12.3515 92.7584 13.3757V19.3045C92.7584 19.4632 92.6998 19.6003 92.5826 19.7157C92.4654 19.8311 92.3263 19.8888 92.1651 19.8888H91.3522C91.1911 19.8888 91.0519 19.8311 90.9347 19.7157C90.8175 19.6003 90.759 19.4632 90.759 19.3045V13.5271C90.759 11.3633 89.8947 10.2814 88.1663 10.2814C87.3753 10.2814 86.7454 10.5411 86.2767 11.0604C85.808 11.5797 85.5736 12.3515 85.5736 13.3757V19.3045C85.5736 19.4632 85.515 19.6003 85.3978 19.7157C85.2807 19.8311 85.1415 19.8888 84.9804 19.8888H84.1674C84.0063 19.8888 83.8671 19.8311 83.75 19.7157C83.6328 19.6003 83.5742 19.4632 83.5742 19.3045V9.22113C83.5742 9.06245 83.6328 8.92541 83.75 8.81C83.8671 8.6946 84.0063 8.6369 84.1674 8.6369H84.9804C85.1415 8.6369 85.2807 8.6946 85.3978 8.81C85.515 8.92541 85.5736 9.06245 85.5736 9.22113V9.89192Z" fill="#525252"/>
<path d="M106.097 23.4807C105.965 23.8269 105.753 24 105.46 24H104.559C104.412 24 104.288 23.9496 104.185 23.8486C104.083 23.7476 104.031 23.625 104.031 23.4807C104.031 23.423 104.039 23.3725 104.053 23.3293L106.163 18.8069L101.812 9.30768C101.798 9.26441 101.79 9.21392 101.79 9.15622C101.79 9.01196 101.842 8.88935 101.944 8.78837C102.047 8.68739 102.171 8.6369 102.318 8.6369H103.218C103.511 8.6369 103.724 8.81001 103.856 9.15622L107.239 16.5132L110.667 9.15622C110.799 8.81001 111.011 8.6369 111.304 8.6369H112.205C112.351 8.6369 112.476 8.68739 112.578 8.78837C112.681 8.88935 112.732 9.01196 112.732 9.15622C112.732 9.21392 112.725 9.26441 112.71 9.30768L106.097 23.4807Z" fill="#525252"/>
<path d="M19.3958 12.7306L12.0181 0.205008C11.9824 0.143159 11.9306 0.0916386 11.8681 0.0556463C11.8056 0.019654 11.7345 0.000462384 11.662 8.25127e-06C11.5895 -0.000445881 11.5181 0.0178533 11.4551 0.0530595C11.3922 0.0882657 11.3398 0.139134 11.3033 0.200531L9.09371 3.95372C9.02135 4.07658 8.98326 4.21595 8.98326 4.35781C8.98326 4.49967 9.02135 4.63904 9.09371 4.7619L13.9044 12.9332C13.9769 13.0562 14.0811 13.1583 14.2066 13.2292C14.3321 13.3001 14.4744 13.3374 14.6193 13.3373H19.0384C19.1107 13.3371 19.1817 13.3182 19.2443 13.2827C19.3069 13.2471 19.3589 13.1961 19.3951 13.1347C19.4313 13.0733 19.4504 13.0036 19.4505 12.9327C19.4506 12.8618 19.4317 12.7921 19.3958 12.7306Z" fill="#525252"/>
<path d="M0.0568897 19.2769L7.43458 6.75134C7.47078 6.68998 7.52283 6.63904 7.58546 6.60362C7.64809 6.5682 7.71911 6.54956 7.79142 6.54956C7.86373 6.54956 7.93478 6.5682 7.99741 6.60362C8.06004 6.63904 8.11206 6.68998 8.14826 6.75134L10.359 10.5012C10.4313 10.6242 10.4694 10.7638 10.4694 10.9058C10.4694 11.0479 10.4313 11.1874 10.359 11.3105L5.54819 19.4817C5.47604 19.6047 5.37206 19.7068 5.24675 19.7778C5.12144 19.8487 4.97923 19.886 4.83452 19.8858H0.414299C0.341483 19.8862 0.269874 19.8676 0.206748 19.8321C0.143622 19.7965 0.0912388 19.7451 0.0549243 19.6833C0.0186097 19.6214 -0.000341874 19.5512 4.66863e-06 19.4798C0.000351211 19.4085 0.019976 19.3384 0.0568897 19.2769Z" fill="#525252"/>
<path d="M8.1472 19.8832H22.9026C22.975 19.8831 23.0461 19.8643 23.1087 19.8288C23.1714 19.7933 23.2233 19.7422 23.2595 19.6807C23.2956 19.6192 23.3145 19.5494 23.3144 19.4785C23.3143 19.4075 23.2952 19.3379 23.2589 19.2765L21.0516 15.5244C20.9792 15.4014 20.875 15.2993 20.7495 15.2284C20.624 15.1574 20.4816 15.1202 20.3368 15.1203H10.7153C10.5704 15.1202 10.4281 15.1574 10.3026 15.2284C10.1771 15.2993 10.0729 15.4014 10.0005 15.5244L7.79095 19.2765C7.75466 19.3379 7.7355 19.4075 7.73539 19.4785C7.73529 19.5494 7.75423 19.6192 7.79034 19.6807C7.82645 19.7422 7.87846 19.7933 7.9411 19.8288C8.00375 19.8643 8.07482 19.8831 8.1472 19.8832Z" fill="#525252"/>
</svg>
